# xmcd
#
# Track frame offsets:
# 150
# 14825
# 29460
# 46975
# 68040
#
# Disc length: 1196 seconds
#
#
# Revision: 0
# Processed by: cddbd v1.5.1PL0 Copyright (c) Steve Scherf et al.
# Submitted via: FreeRIP 2.942 
#
DISCID=3f04aa05
DTITLE=Rick Orozco - Buscando Una Estrella (Looking for a Star)
DYEAR=1996
DGENRE=Latin
TTITLE0=Tejano Rose
TTITLE1=Rosa Tejana
TTITLE2=You Fell in Love (But Not with Me)
TTITLE3=Yo Busco Una Estrella
TTITLE4=Angelina
EXTD=
EXTT0=
EXTT1=
EXTT2=
EXTT3=
EXTT4=
PLAYORDER=
